<svg xmlns="http://www.w3.org/2000/svg" xmlns:xlink="http://www.w3.org/1999/xlink" width="1080" zoomAndPan="magnify" viewBox="0 0 810 1439.999935" height="1920" preserveAspectRatio="xMidYMid meet" version="1.0"><defs><g/><clipPath id="3c29aacd31"><path d="M 185.933594 488.433594 L 623.933594 488.433594 L 623.933594 926.433594 L 185.933594 926.433594 Z M 185.933594 488.433594 " clip-rule="nonzero"/></clipPath></defs><g clip-path="url(#3c29aacd31)"><path fill="#ffffff" d="M 405.039062 496.671875 C 288.765625 496.671875 194.171875 591.265625 194.171875 707.542969 C 194.171875 823.816406 288.765625 918.410156 405.039062 918.410156 C 521.316406 918.410156 615.910156 823.816406 615.910156 707.542969 C 615.910156 591.265625 521.316406 496.671875 405.039062 496.671875 Z M 405.039062 926.613281 C 284.242188 926.613281 185.96875 828.339844 185.96875 707.542969 C 185.96875 586.742188 284.242188 488.46875 405.039062 488.46875 C 463.554688 488.46875 518.570312 511.253906 559.949219 552.632812 C 601.328125 594.011719 624.113281 649.023438 624.113281 707.542969 C 624.113281 828.339844 525.839844 926.613281 405.039062 926.613281 " fill-opacity="1" fill-rule="nonzero"/></g><path fill="#ffffff" d="M 618.484375 710.492188 C 600.929688 710.492188 580.957031 702.585938 569.824219 695.242188 C 567.03125 693.398438 563.441406 693.453125 560.675781 695.378906 C 549.890625 702.902344 530.566406 710.492188 511.714844 710.492188 L 511.714844 702.289062 C 528.789062 702.289062 546.25 695.4375 555.980469 688.652344 C 561.519531 684.785156 568.726562 684.6875 574.34375 688.390625 C 584.804688 695.296875 603.328125 702.289062 618.484375 702.289062 L 618.484375 710.492188 " fill-opacity="1" fill-rule="nonzero"/><path fill="#ffffff" d="M 298.136719 710.480469 C 279.1875 710.480469 259.941406 702.945312 249.273438 695.476562 C 246.46875 693.519531 242.832031 693.476562 240.011719 695.375 C 228.820312 702.894531 209.441406 710.480469 191.367188 710.480469 L 191.367188 702.277344 C 207.628906 702.277344 225.609375 695.171875 235.429688 688.5625 C 241.085938 684.757812 248.371094 684.835938 253.980469 688.757812 C 263.589844 695.488281 280.972656 702.277344 298.136719 702.277344 C 315.210938 702.277344 332.671875 695.429688 342.402344 688.640625 L 347.097656 695.371094 C 336.316406 702.894531 316.988281 710.480469 298.136719 710.480469 " fill-opacity="1" fill-rule="nonzero"/><path fill="#ffffff" d="M 511.714844 787.222656 C 492.765625 787.222656 473.503906 779.683594 462.820312 772.210938 C 460.03125 770.265625 456.417969 770.234375 453.613281 772.144531 C 442.59375 779.644531 423.265625 787.214844 404.90625 787.214844 C 387.355469 787.214844 367.375 779.3125 356.246094 771.964844 C 353.453125 770.121094 349.859375 770.175781 347.097656 772.105469 C 336.316406 779.628906 316.988281 787.214844 298.136719 787.214844 C 279.1875 787.214844 259.941406 779.679688 249.273438 772.210938 C 246.46875 770.25 242.832031 770.207031 240.011719 772.109375 C 232.402344 777.21875 218.863281 783.589844 203.664062 786.140625 L 202.308594 778.050781 C 216.230469 775.714844 228.851562 769.722656 235.429688 765.296875 C 241.085938 761.488281 248.371094 761.570312 253.980469 765.492188 C 263.589844 772.222656 280.972656 779.011719 298.136719 779.011719 C 315.210938 779.011719 332.671875 772.160156 342.402344 765.375 C 347.941406 761.515625 355.148438 761.414062 360.765625 765.117188 C 371.230469 772.019531 389.75 779.011719 404.90625 779.011719 C 421.425781 779.011719 439.339844 771.9375 448.992188 765.363281 C 454.554688 761.578125 462 761.628906 467.523438 765.492188 C 477.152344 772.226562 494.546875 779.019531 511.714844 779.019531 C 528.789062 779.019531 546.246094 772.167969 555.980469 765.382812 C 561.519531 761.519531 568.722656 761.421875 574.34375 765.125 C 581.09375 769.582031 593.894531 775.632812 607.777344 778.039062 L 606.375 786.121094 C 591.253906 783.503906 577.230469 776.863281 569.824219 771.976562 C 567.03125 770.128906 563.4375 770.1875 560.675781 772.113281 C 549.886719 779.636719 530.566406 787.222656 511.714844 787.222656 " fill-opacity="1" fill-rule="nonzero"/><path fill="#ffffff" d="M 511.714844 863.957031 C 492.765625 863.957031 473.503906 856.417969 462.820312 848.945312 C 460.035156 846.996094 456.417969 846.96875 453.613281 848.878906 C 442.59375 856.378906 423.261719 863.949219 404.90625 863.949219 C 387.355469 863.949219 367.378906 856.042969 356.246094 848.699219 C 353.453125 846.855469 349.859375 846.90625 347.097656 848.835938 C 336.3125 856.359375 316.988281 863.949219 298.136719 863.949219 C 279.1875 863.949219 259.941406 856.414062 249.273438 848.945312 C 246.796875 847.207031 243.589844 846.96875 240.90625 848.3125 L 237.234375 840.980469 C 242.609375 838.28125 249.027344 838.757812 253.976562 842.226562 C 263.589844 848.957031 280.972656 855.746094 298.136719 855.746094 C 315.210938 855.746094 332.667969 848.894531 342.402344 842.109375 C 347.941406 838.246094 355.148438 838.144531 360.765625 841.851562 C 371.230469 848.753906 389.753906 855.746094 404.90625 855.746094 C 421.425781 855.746094 439.339844 848.671875 448.992188 842.097656 C 454.554688 838.3125 462 838.359375 467.523438 842.226562 C 477.152344 848.960938 494.546875 855.753906 511.714844 855.753906 C 528.789062 855.753906 546.246094 848.902344 555.980469 842.117188 C 560.945312 838.652344 567.371094 838.199219 572.742188 840.925781 L 569.027344 848.246094 C 566.359375 846.886719 563.15625 847.117188 560.675781 848.847656 C 549.886719 856.367188 530.566406 863.957031 511.714844 863.957031 " fill-opacity="1" fill-rule="nonzero"/><path fill="#ffffff" d="M 487.199219 738.597656 C 483.117188 741.089844 478.453125 742.40625 473.699219 742.40625 C 464.574219 742.40625 456.289062 737.765625 451.535156 729.988281 C 444.078125 717.785156 447.9375 701.785156 460.140625 694.324219 C 464.222656 691.832031 468.890625 690.515625 473.644531 690.515625 C 482.769531 690.515625 491.054688 695.15625 495.804688 702.933594 C 503.265625 715.136719 499.402344 731.136719 487.199219 738.597656 Z M 502.808594 698.65625 C 496.550781 688.417969 485.648438 682.308594 473.644531 682.308594 C 467.382812 682.308594 461.230469 684.042969 455.863281 687.324219 C 440.488281 696.71875 435.183594 716.410156 443.363281 732.167969 C 444.132812 733.238281 444.832031 734.347656 445.394531 735.582031 C 451.761719 745.015625 462.222656 750.613281 473.699219 750.613281 C 479.960938 750.613281 486.109375 748.875 491.476562 745.597656 C 507.542969 735.777344 512.621094 714.71875 502.808594 698.65625 " fill-opacity="1" fill-rule="nonzero"/><path fill="#ffffff" d="M 458.363281 741.15625 L 444.710938 718.820312 C 442.285156 714.851562 439.128906 710.839844 432.523438 708.355469 L 429.734375 715.773438 C 429.9375 715.933594 430.132812 716.113281 430.308594 716.316406 C 433.53125 717.652344 435.476562 719.4375 437.707031 723.097656 L 442.726562 731.308594 C 443.8125 732.734375 444.796875 734.199219 445.53125 735.898438 L 451.359375 745.433594 C 455.238281 751.777344 456.417969 759.253906 454.675781 766.484375 L 462.65625 768.398438 C 464.90625 759.039062 463.378906 749.367188 458.363281 741.15625 " fill-opacity="1" fill-rule="nonzero"/><path fill="#ffffff" d="M 389.574219 719.617188 L 385.398438 712.785156 L 279.136719 777.726562 L 283.417969 784.722656 L 386.757812 721.570312 C 387.621094 720.832031 388.570312 720.195312 389.574219 719.617188 " fill-opacity="1" fill-rule="nonzero"/><path fill="#ffffff" d="M 487.191406 654.21875 C 485.601562 643.9375 476.90625 636.476562 466.515625 636.476562 C 465.441406 636.476562 464.359375 636.558594 463.292969 636.722656 L 365.53125 651.839844 C 356.132812 653.296875 348.890625 660.925781 347.917969 670.402344 C 347.902344 670.558594 347.882812 670.71875 347.871094 670.890625 C 347.839844 671.296875 347.820312 671.707031 347.8125 672.109375 C 347.804688 672.480469 347.804688 672.847656 347.816406 673.25 C 347.824219 673.46875 347.832031 673.6875 347.84375 673.878906 C 347.871094 674.378906 347.925781 674.890625 347.992188 675.398438 L 347.992188 675.695312 L 348.082031 676 C 348.785156 680.375 350.804688 684.328125 353.925781 687.445312 C 365.097656 698.621094 376.371094 709.699219 387.429688 720.992188 C 387.738281 721.308594 391.078125 718.523438 391.363281 717.839844 C 391.726562 716.964844 391.554688 716.066406 391.359375 715.179688 C 390.792969 712.617188 388.601562 710.230469 386.933594 708.320312 C 383.320312 704.191406 378.964844 700.886719 375.101562 697.023438 C 369.980469 691.898438 364.851562 686.773438 359.726562 681.644531 C 357.855469 679.777344 356.636719 677.410156 356.199219 674.785156 L 356.140625 674.433594 C 356.089844 674.089844 356.058594 673.738281 356.035156 673.351562 C 356.023438 673.222656 356.019531 673.097656 356.015625 673 C 356.007812 672.765625 356.007812 672.535156 356.011719 672.289062 C 356.019531 672.039062 356.027344 671.789062 356.050781 671.550781 L 356.082031 671.234375 C 356.671875 665.472656 361.074219 660.832031 366.789062 659.949219 L 464.546875 644.832031 C 465.203125 644.730469 465.863281 644.679688 466.515625 644.679688 C 472.730469 644.679688 478.128906 649.320312 479.082031 655.472656 C 480.15625 662.414062 475.382812 668.933594 468.441406 670.007812 L 395.410156 681.300781 C 398.992188 684.882812 402.574219 688.464844 406.15625 692.046875 C 412.613281 698.507812 419.070312 704.964844 425.53125 711.425781 C 429.132812 715.027344 432.761719 718.785156 436.101562 722.699219 C 437.792969 724.683594 439.417969 726.71875 440.957031 728.820312 C 441.746094 729.894531 442.511719 730.992188 443.246094 732.105469 C 443.929688 733.136719 444.402344 734.433594 445.3125 735.289062 C 446.429688 734.371094 446.253906 731.441406 446.304688 730.101562 C 446.375 728.226562 446.199219 726.34375 445.777344 724.511719 C 444.902344 720.742188 442.964844 717.253906 440.222656 714.515625 L 412.648438 686.9375 L 469.695312 678.117188 C 481.105469 676.351562 488.953125 665.632812 487.191406 654.21875 " fill-opacity="1" fill-rule="nonzero"/><g fill="#ffffff" fill-opacity="1"><g transform="translate(227.424411, 539.75768)"><g><path d="M -5.8125 -32.96875 C -5.257812 -33.5 -4.710938 -33.738281 -4.171875 -33.6875 C -3.628906 -33.644531 -3.148438 -33.398438 -2.734375 -32.953125 C -2.316406 -32.503906 -2.109375 -32.015625 -2.109375 -31.484375 C -2.109375 -30.960938 -2.382812 -30.4375 -2.9375 -29.90625 L -10.921875 -22.40625 L -5.65625 -16.8125 L 1.890625 -23.90625 C 2.453125 -24.4375 3 -24.675781 3.53125 -24.625 C 4.0625 -24.582031 4.539062 -24.335938 4.96875 -23.890625 C 5.382812 -23.441406 5.59375 -22.957031 5.59375 -22.4375 C 5.601562 -21.914062 5.328125 -21.390625 4.765625 -20.859375 L -2.78125 -13.765625 L 2.515625 -8.140625 L 10.796875 -15.921875 C 11.347656 -16.453125 11.890625 -16.691406 12.421875 -16.640625 C 12.960938 -16.597656 13.445312 -16.351562 13.875 -15.90625 C 14.289062 -15.457031 14.5 -14.96875 14.5 -14.4375 C 14.5 -13.914062 14.222656 -13.390625 13.671875 -12.859375 L 4.453125 -4.203125 C 3.523438 -3.316406 2.6875 -2.878906 1.9375 -2.890625 C 1.1875 -2.910156 0.335938 -3.425781 -0.609375 -4.4375 L -14.8125 -19.515625 C -15.757812 -20.523438 -16.210938 -21.398438 -16.171875 -22.140625 C -16.140625 -22.890625 -15.660156 -23.707031 -14.734375 -24.59375 Z M -5.8125 -32.96875 "/></g></g></g><g fill="#ffffff" fill-opacity="1"><g transform="translate(243.050373, 524.940831)"><g><path d="M 9.578125 -6.984375 C 9.066406 -6.585938 8.328125 -6.097656 7.359375 -5.515625 C 6.398438 -4.929688 5.378906 -4.4375 4.296875 -4.03125 C 3.210938 -3.625 2.175781 -3.394531 1.1875 -3.34375 C 0.207031 -3.300781 -0.550781 -3.625 -1.09375 -4.3125 C -1.457031 -4.78125 -1.617188 -5.238281 -1.578125 -5.6875 C -1.546875 -6.132812 -1.328125 -6.519531 -0.921875 -6.84375 C -0.535156 -7.144531 -0.0390625 -7.332031 0.5625 -7.40625 C 1.175781 -7.476562 1.921875 -7.644531 2.796875 -7.90625 C 3.359375 -8.101562 3.976562 -8.378906 4.65625 -8.734375 C 5.34375 -9.097656 6.101562 -9.609375 6.9375 -10.265625 C 7.570312 -10.753906 8.109375 -11.257812 8.546875 -11.78125 C 8.984375 -12.3125 9.289062 -12.851562 9.46875 -13.40625 C 9.644531 -13.957031 9.679688 -14.523438 9.578125 -15.109375 C 9.484375 -15.691406 9.207031 -16.273438 8.75 -16.859375 C 8.226562 -17.523438 7.640625 -17.925781 6.984375 -18.0625 C 6.328125 -18.207031 5.632812 -18.1875 4.90625 -18 C 4.1875 -17.820312 3.414062 -17.539062 2.59375 -17.15625 C 1.78125 -16.78125 0.9375 -16.40625 0.0625 -16.03125 C -0.8125 -15.664062 -1.707031 -15.34375 -2.625 -15.0625 C -3.550781 -14.78125 -4.472656 -14.675781 -5.390625 -14.75 C -6.304688 -14.832031 -7.234375 -15.125 -8.171875 -15.625 C -9.109375 -16.125 -10.03125 -16.953125 -10.9375 -18.109375 C -11.726562 -19.117188 -12.210938 -20.140625 -12.390625 -21.171875 C -12.566406 -22.203125 -12.507812 -23.21875 -12.21875 -24.21875 C -11.925781 -25.21875 -11.414062 -26.191406 -10.6875 -27.140625 C -9.96875 -28.085938 -9.09375 -28.960938 -8.0625 -29.765625 C -7.601562 -30.117188 -6.925781 -30.578125 -6.03125 -31.140625 C -5.132812 -31.703125 -4.191406 -32.191406 -3.203125 -32.609375 C -2.210938 -33.035156 -1.257812 -33.285156 -0.34375 -33.359375 C 0.5625 -33.429688 1.269531 -33.140625 1.78125 -32.484375 C 2.144531 -32.023438 2.304688 -31.566406 2.265625 -31.109375 C 2.234375 -30.660156 2.019531 -30.28125 1.625 -29.96875 C 1.28125 -29.707031 0.882812 -29.519531 0.4375 -29.40625 C -0.0078125 -29.289062 -0.578125 -29.101562 -1.265625 -28.84375 C -1.835938 -28.625 -2.472656 -28.332031 -3.171875 -27.96875 C -3.867188 -27.613281 -4.632812 -27.109375 -5.46875 -26.453125 C -6.5 -25.648438 -7.207031 -24.765625 -7.59375 -23.796875 C -7.976562 -22.835938 -7.832031 -21.925781 -7.15625 -21.0625 C -6.570312 -20.320312 -5.941406 -19.863281 -5.265625 -19.6875 C -4.585938 -19.519531 -3.878906 -19.515625 -3.140625 -19.671875 C -2.398438 -19.828125 -1.613281 -20.09375 -0.78125 -20.46875 C 0.0507812 -20.851562 0.898438 -21.238281 1.765625 -21.625 C 2.628906 -22.019531 3.503906 -22.363281 4.390625 -22.65625 C 5.285156 -22.957031 6.179688 -23.082031 7.078125 -23.03125 C 7.984375 -22.988281 8.882812 -22.734375 9.78125 -22.265625 C 10.675781 -21.804688 11.5625 -21.019531 12.4375 -19.90625 C 13.425781 -18.644531 14.039062 -17.429688 14.28125 -16.265625 C 14.519531 -15.109375 14.472656 -13.984375 14.140625 -12.890625 C 13.816406 -11.796875 13.25 -10.753906 12.4375 -9.765625 C 11.632812 -8.785156 10.679688 -7.859375 9.578125 -6.984375 Z M 9.578125 -6.984375 "/></g></g></g><g fill="#ffffff" fill-opacity="1"><g transform="translate(261.179446, 510.575895)"><g><path d="M 13.078125 -14.71875 C 13.253906 -15.375 13.3125 -15.988281 13.25 -16.5625 C 13.1875 -17.144531 13.140625 -17.6875 13.109375 -18.1875 C 13.078125 -18.6875 13.125 -19.144531 13.25 -19.5625 C 13.375 -19.988281 13.707031 -20.375 14.25 -20.71875 C 14.789062 -21.0625 15.320312 -21.175781 15.84375 -21.0625 C 16.363281 -20.957031 16.8125 -20.609375 17.1875 -20.015625 C 17.414062 -19.660156 17.585938 -19.242188 17.703125 -18.765625 C 17.816406 -18.285156 17.890625 -17.78125 17.921875 -17.25 C 17.960938 -16.71875 17.953125 -16.171875 17.890625 -15.609375 C 17.835938 -15.054688 17.742188 -14.519531 17.609375 -14 C 17.203125 -12.539062 16.523438 -11.257812 15.578125 -10.15625 C 14.640625 -9.050781 13.5 -8.070312 12.15625 -7.21875 C 10.726562 -6.3125 9.269531 -5.664062 7.78125 -5.28125 C 6.289062 -4.894531 4.785156 -4.875 3.265625 -5.21875 C 1.753906 -5.5625 0.238281 -6.34375 -1.28125 -7.5625 C -2.8125 -8.78125 -4.3125 -10.546875 -5.78125 -12.859375 C -7.25 -15.179688 -8.203125 -17.289062 -8.640625 -19.1875 C -9.085938 -21.082031 -9.148438 -22.796875 -8.828125 -24.328125 C -8.503906 -25.859375 -7.851562 -27.21875 -6.875 -28.40625 C -5.894531 -29.601562 -4.691406 -30.65625 -3.265625 -31.5625 C -1.617188 -32.601562 0.0664062 -33.300781 1.796875 -33.65625 C 3.523438 -34.007812 5.289062 -33.816406 7.09375 -33.078125 C 7.59375 -32.867188 8.128906 -32.582031 8.703125 -32.21875 C 9.285156 -31.863281 9.738281 -31.425781 10.0625 -30.90625 C 10.40625 -30.375 10.503906 -29.847656 10.359375 -29.328125 C 10.210938 -28.804688 9.867188 -28.367188 9.328125 -28.015625 C 8.859375 -27.722656 8.453125 -27.578125 8.109375 -27.578125 C 7.773438 -27.585938 7.4375 -27.671875 7.09375 -27.828125 C 6.75 -27.992188 6.394531 -28.207031 6.03125 -28.46875 C 5.664062 -28.726562 5.210938 -28.9375 4.671875 -29.09375 C 3.648438 -29.414062 2.660156 -29.445312 1.703125 -29.1875 C 0.742188 -28.9375 -0.160156 -28.539062 -1.015625 -28 C -1.878906 -27.445312 -2.601562 -26.804688 -3.1875 -26.078125 C -3.78125 -25.347656 -4.144531 -24.472656 -4.28125 -23.453125 C -4.414062 -22.429688 -4.289062 -21.257812 -3.90625 -19.9375 C -3.53125 -18.625 -2.804688 -17.117188 -1.734375 -15.421875 C -0.660156 -13.734375 0.390625 -12.429688 1.421875 -11.515625 C 2.453125 -10.609375 3.445312 -10.007812 4.40625 -9.71875 C 5.363281 -9.4375 6.300781 -9.398438 7.21875 -9.609375 C 8.144531 -9.828125 9.039062 -10.210938 9.90625 -10.765625 C 10.664062 -11.242188 11.320312 -11.800781 11.875 -12.4375 C 12.4375 -13.082031 12.835938 -13.84375 13.078125 -14.71875 Z M 13.078125 -14.71875 "/></g></g></g><g fill="#ffffff" fill-opacity="1"><g transform="translate(283.245228, 496.498214)"><g><path d="M 12.84375 -5.875 C 11.21875 -5.070312 9.609375 -4.601562 8.015625 -4.46875 C 6.421875 -4.332031 4.882812 -4.566406 3.40625 -5.171875 C 1.9375 -5.773438 0.539062 -6.757812 -0.78125 -8.125 C -2.101562 -9.488281 -3.300781 -11.257812 -4.375 -13.4375 C -5.457031 -15.644531 -6.128906 -17.6875 -6.390625 -19.5625 C -6.660156 -21.4375 -6.582031 -23.132812 -6.15625 -24.65625 C -5.738281 -26.1875 -4.988281 -27.546875 -3.90625 -28.734375 C -2.832031 -29.929688 -1.484375 -30.929688 0.140625 -31.734375 C 1.765625 -32.523438 3.375 -32.984375 4.96875 -33.109375 C 6.570312 -33.242188 8.113281 -33.015625 9.59375 -32.421875 C 11.082031 -31.828125 12.476562 -30.847656 13.78125 -29.484375 C 15.09375 -28.117188 16.289062 -26.332031 17.375 -24.125 C 18.445312 -21.945312 19.125 -19.921875 19.40625 -18.046875 C 19.6875 -16.171875 19.609375 -14.460938 19.171875 -12.921875 C 18.742188 -11.390625 17.988281 -10.03125 16.90625 -8.84375 C 15.820312 -7.65625 14.46875 -6.664062 12.84375 -5.875 Z M 11 -9.640625 C 12.988281 -10.609375 14.207031 -12.140625 14.65625 -14.234375 C 15.101562 -16.335938 14.570312 -18.929688 13.0625 -22.015625 C 11.539062 -25.097656 9.8125 -27.097656 7.875 -28.015625 C 5.945312 -28.941406 3.988281 -28.921875 2 -27.953125 C 0.0078125 -26.972656 -1.210938 -25.429688 -1.671875 -23.328125 C -2.128906 -21.234375 -1.597656 -18.644531 -0.078125 -15.5625 C 1.429688 -12.476562 3.15625 -10.472656 5.09375 -9.546875 C 7.039062 -8.628906 9.007812 -8.660156 11 -9.640625 Z M 11 -9.640625 "/></g></g></g><g fill="#ffffff" fill-opacity="1"><g transform="translate(307.820209, 484.571713)"><g><path d="M -6.75 -25.203125 C -7.039062 -25.984375 -7.039062 -26.640625 -6.75 -27.171875 C -6.46875 -27.703125 -6.003906 -28.09375 -5.359375 -28.34375 C -4.703125 -28.59375 -4.09375 -28.609375 -3.53125 -28.390625 C -2.96875 -28.171875 -2.539062 -27.671875 -2.25 -26.890625 L 5.4375 -6.546875 L 14.609375 -10.015625 C 15.328125 -10.285156 15.925781 -10.296875 16.40625 -10.046875 C 16.882812 -9.804688 17.234375 -9.394531 17.453125 -8.8125 C 17.671875 -8.238281 17.675781 -7.707031 17.46875 -7.21875 C 17.269531 -6.726562 16.8125 -6.347656 16.09375 -6.078125 L 5.734375 -2.15625 C 4.535156 -1.707031 3.59375 -1.632812 2.90625 -1.9375 C 2.21875 -2.238281 1.628906 -3.035156 1.140625 -4.328125 Z M -6.75 -25.203125 "/></g></g></g><g fill="#ffffff" fill-opacity="1"><g transform="translate(326.417785, 477.34487)"><g><path d="M 24.03125 -9.46875 C 24.300781 -9.09375 24.484375 -8.734375 24.578125 -8.390625 C 24.734375 -7.804688 24.675781 -7.285156 24.40625 -6.828125 C 24.132812 -6.378906 23.648438 -6.0625 22.953125 -5.875 C 22.328125 -5.695312 21.738281 -5.710938 21.1875 -5.921875 C 20.632812 -6.140625 20.109375 -6.609375 19.609375 -7.328125 L 16.765625 -11.265625 L 5.96875 -8.3125 L 5.59375 -3.484375 C 5.53125 -2.609375 5.3125 -1.9375 4.9375 -1.46875 C 4.570312 -1.007812 4.082031 -0.695312 3.46875 -0.53125 C 2.78125 -0.34375 2.195312 -0.367188 1.71875 -0.609375 C 1.238281 -0.859375 0.921875 -1.273438 0.765625 -1.859375 C 0.671875 -2.203125 0.648438 -2.601562 0.703125 -3.0625 L 2.71875 -27.03125 C 2.789062 -28.21875 3.050781 -29.109375 3.5 -29.703125 C 3.945312 -30.296875 4.644531 -30.722656 5.59375 -30.984375 C 6.550781 -31.242188 7.375 -31.234375 8.0625 -30.953125 C 8.75 -30.671875 9.429688 -30.039062 10.109375 -29.0625 Z M 6.359375 -12.78125 L 14.203125 -14.9375 L 7.34375 -24.515625 Z M 6.359375 -12.78125 "/></g></g></g><g fill="#ffffff" fill-opacity="1"><g transform="translate(351.950593, 470.609693)"><g/></g></g><g fill="#ffffff" fill-opacity="1"><g transform="translate(363.360802, 468.105519)"><g><path d="M 6.078125 -0.703125 C 4.804688 -0.554688 3.875 -0.707031 3.28125 -1.15625 C 2.695312 -1.613281 2.320312 -2.53125 2.15625 -3.90625 L -0.203125 -24.5 C -0.359375 -25.875 -0.203125 -26.847656 0.265625 -27.421875 C 0.734375 -28.003906 1.601562 -28.367188 2.875 -28.515625 L 7.21875 -29.015625 C 10.175781 -29.347656 12.601562 -29.300781 14.5 -28.875 C 16.40625 -28.457031 17.9375 -27.695312 19.09375 -26.59375 C 20.257812 -25.5 21.113281 -24.085938 21.65625 -22.359375 C 22.207031 -20.640625 22.613281 -18.664062 22.875 -16.4375 C 23.101562 -14.445312 23.117188 -12.597656 22.921875 -10.890625 C 22.722656 -9.179688 22.195312 -7.664062 21.34375 -6.34375 C 20.488281 -5.019531 19.226562 -3.921875 17.5625 -3.046875 C 15.894531 -2.171875 13.679688 -1.570312 10.921875 -1.25 Z M 4.640625 -24.484375 L 6.875 -5.015625 L 10.515625 -5.4375 C 12.367188 -5.644531 13.832031 -6.039062 14.90625 -6.625 C 15.988281 -7.207031 16.789062 -7.945312 17.3125 -8.84375 C 17.84375 -9.738281 18.144531 -10.78125 18.21875 -11.96875 C 18.300781 -13.15625 18.265625 -14.460938 18.109375 -15.890625 C 17.910156 -17.535156 17.644531 -18.976562 17.3125 -20.21875 C 16.988281 -21.457031 16.453125 -22.453125 15.703125 -23.203125 C 14.960938 -23.960938 13.957031 -24.484375 12.6875 -24.765625 C 11.414062 -25.046875 9.753906 -25.070312 7.703125 -24.84375 Z M 4.640625 -24.484375 "/></g></g></g><g fill="#ffffff" fill-opacity="1"><g transform="translate(388.880257, 465.226207)"><g><path d="M 17.828125 -28.34375 C 18.597656 -28.363281 19.164062 -28.175781 19.53125 -27.78125 C 19.894531 -27.382812 20.082031 -26.878906 20.09375 -26.265625 C 20.113281 -25.648438 19.945312 -25.144531 19.59375 -24.75 C 19.238281 -24.363281 18.675781 -24.160156 17.90625 -24.140625 L 6.953125 -23.9375 L 7.09375 -16.265625 L 17.453125 -16.46875 C 18.222656 -16.476562 18.789062 -16.285156 19.15625 -15.890625 C 19.53125 -15.492188 19.722656 -14.988281 19.734375 -14.375 C 19.742188 -13.757812 19.570312 -13.253906 19.21875 -12.859375 C 18.863281 -12.472656 18.300781 -12.273438 17.53125 -12.265625 L 7.171875 -12.0625 L 7.328125 -4.34375 L 18.6875 -4.5625 C 19.457031 -4.570312 20.023438 -4.378906 20.390625 -3.984375 C 20.753906 -3.597656 20.941406 -3.097656 20.953125 -2.484375 C 20.972656 -1.867188 20.804688 -1.363281 20.453125 -0.96875 C 20.097656 -0.570312 19.535156 -0.367188 18.765625 -0.359375 L 6.125 -0.109375 C 4.84375 -0.0859375 3.925781 -0.332031 3.375 -0.84375 C 2.832031 -1.351562 2.550781 -2.300781 2.53125 -3.6875 L 2.125 -24.40625 C 2.101562 -25.789062 2.351562 -26.75 2.875 -27.28125 C 3.40625 -27.8125 4.3125 -28.085938 5.59375 -28.109375 Z M 17.828125 -28.34375 "/></g></g></g><g fill="#ffffff" fill-opacity="1"><g transform="translate(410.616915, 464.957978)"><g/></g></g><g fill="#ffffff" fill-opacity="1"><g transform="translate(422.295416, 465.229672)"><g><path d="M 24.140625 0.359375 C 24.015625 1.398438 23.707031 2.140625 23.21875 2.578125 C 22.738281 3.015625 22.113281 3.1875 21.34375 3.09375 C 20.707031 3.007812 20.179688 2.773438 19.765625 2.390625 C 19.347656 2.015625 18.972656 1.488281 18.640625 0.8125 L 9.640625 -17.453125 L 7.59375 -1.109375 C 7.488281 -0.285156 7.1875 0.296875 6.6875 0.640625 C 6.195312 0.984375 5.609375 1.113281 4.921875 1.03125 C 4.222656 0.9375 3.671875 0.660156 3.265625 0.203125 C 2.867188 -0.242188 2.722656 -0.878906 2.828125 -1.703125 L 5.734375 -24.828125 C 5.859375 -25.867188 6.160156 -26.609375 6.640625 -27.046875 C 7.128906 -27.484375 7.757812 -27.65625 8.53125 -27.5625 C 9.164062 -27.476562 9.6875 -27.242188 10.09375 -26.859375 C 10.5 -26.484375 10.878906 -25.957031 11.234375 -25.28125 L 20.21875 -7.015625 L 22.28125 -23.359375 C 22.375 -24.179688 22.671875 -24.765625 23.171875 -25.109375 C 23.679688 -25.453125 24.273438 -25.582031 24.953125 -25.5 C 25.648438 -25.414062 26.195312 -25.144531 26.59375 -24.6875 C 26.988281 -24.226562 27.140625 -23.585938 27.046875 -22.765625 Z M 24.140625 0.359375 "/></g></g></g><g fill="#ffffff" fill-opacity="1"><g transform="translate(447.707872, 468.346752)"><g><path d="M 25.640625 3.15625 C 25.703125 3.601562 25.691406 4 25.609375 4.34375 C 25.472656 4.925781 25.171875 5.347656 24.703125 5.609375 C 24.242188 5.878906 23.664062 5.9375 22.96875 5.78125 C 22.34375 5.632812 21.832031 5.335938 21.4375 4.890625 C 21.050781 4.441406 20.8125 3.78125 20.71875 2.90625 L 20.125 -1.90625 L 9.21875 -4.453125 L 6.5625 -0.390625 C 6.09375 0.347656 5.585938 0.832031 5.046875 1.0625 C 4.503906 1.289062 3.921875 1.332031 3.296875 1.1875 C 2.597656 1.019531 2.097656 0.710938 1.796875 0.265625 C 1.503906 -0.171875 1.425781 -0.679688 1.5625 -1.265625 C 1.644531 -1.609375 1.816406 -1.96875 2.078125 -2.34375 L 15.28125 -22.46875 C 15.925781 -23.476562 16.582031 -24.132812 17.25 -24.4375 C 17.925781 -24.75 18.738281 -24.789062 19.6875 -24.5625 C 20.65625 -24.34375 21.375 -23.945312 21.84375 -23.375 C 22.320312 -22.800781 22.625 -21.914062 22.75 -20.71875 Z M 11.6875 -8.203125 L 19.59375 -6.34375 L 18.140625 -18.046875 Z M 11.6875 -8.203125 "/></g></g></g><g fill="#ffffff" fill-opacity="1"><g transform="translate(473.230927, 474.368842)"><g><path d="M 13.71875 2.484375 C 13.445312 3.273438 13.035156 3.785156 12.484375 4.015625 C 11.929688 4.253906 11.328125 4.265625 10.671875 4.046875 C 10.015625 3.828125 9.535156 3.453125 9.234375 2.921875 C 8.929688 2.398438 8.914062 1.742188 9.1875 0.953125 L 16.171875 -19.640625 L 10.703125 -21.5 C 9.972656 -21.738281 9.5 -22.097656 9.28125 -22.578125 C 9.070312 -23.054688 9.0625 -23.585938 9.25 -24.171875 C 9.445312 -24.753906 9.78125 -25.175781 10.25 -25.4375 C 10.71875 -25.707031 11.316406 -25.722656 12.046875 -25.484375 L 27.515625 -20.234375 C 28.242188 -19.984375 28.710938 -19.609375 28.921875 -19.109375 C 29.128906 -18.617188 29.132812 -18.082031 28.9375 -17.5 C 28.75 -16.914062 28.421875 -16.5 27.953125 -16.25 C 27.492188 -16 26.898438 -16 26.171875 -16.25 L 20.703125 -18.109375 Z M 13.71875 2.484375 "/></g></g></g><g fill="#ffffff" fill-opacity="1"><g transform="translate(493.996823, 481.246193)"><g><path d="M 24.546875 8.046875 C 24.515625 8.503906 24.425781 8.894531 24.28125 9.21875 C 24.03125 9.769531 23.65625 10.128906 23.15625 10.296875 C 22.65625 10.472656 22.078125 10.414062 21.421875 10.125 C 20.828125 9.851562 20.382812 9.457031 20.09375 8.9375 C 19.800781 8.425781 19.691406 7.738281 19.765625 6.875 L 20.109375 2 L 9.90625 -2.609375 L 6.515625 0.890625 C 5.921875 1.523438 5.332031 1.898438 4.75 2.015625 C 4.164062 2.140625 3.582031 2.070312 3 1.8125 C 2.34375 1.507812 1.910156 1.113281 1.703125 0.625 C 1.503906 0.132812 1.53125 -0.382812 1.78125 -0.9375 C 1.925781 -1.257812 2.164062 -1.582031 2.5 -1.90625 L 19.34375 -19.09375 C 20.15625 -19.957031 20.921875 -20.472656 21.640625 -20.640625 C 22.367188 -20.816406 23.179688 -20.703125 24.078125 -20.296875 C 24.984375 -19.890625 25.609375 -19.359375 25.953125 -18.703125 C 26.304688 -18.046875 26.429688 -17.125 26.328125 -15.9375 Z M 13.046875 -5.78125 L 20.453125 -2.4375 L 21.28125 -14.1875 Z M 13.046875 -5.78125 "/></g></g></g><g fill="#ffffff" fill-opacity="1"><g transform="translate(517.854121, 491.958043)"><g><path d="M 9.609375 10.3125 C 9.203125 9.9375 8.929688 9.519531 8.796875 9.0625 C 8.660156 8.601562 8.769531 8.171875 9.125 7.765625 L 10.34375 6.390625 C 9.175781 5.535156 8.207031 4.539062 7.4375 3.40625 C 6.664062 2.28125 6.171875 1.003906 5.953125 -0.421875 C 5.734375 -1.847656 5.832031 -3.4375 6.25 -5.1875 C 6.675781 -6.9375 7.515625 -8.882812 8.765625 -11.03125 C 10.160156 -13.394531 11.597656 -15.207031 13.078125 -16.46875 C 14.566406 -17.738281 16.066406 -18.578125 17.578125 -18.984375 C 19.085938 -19.398438 20.59375 -19.445312 22.09375 -19.125 C 23.601562 -18.8125 25.085938 -18.226562 26.546875 -17.375 C 28.222656 -16.394531 29.613281 -15.210938 30.71875 -13.828125 C 31.832031 -12.441406 32.472656 -10.789062 32.640625 -8.875 C 32.691406 -8.332031 32.6875 -7.71875 32.625 -7.03125 C 32.570312 -6.351562 32.390625 -5.75 32.078125 -5.21875 C 31.753906 -4.664062 31.332031 -4.335938 30.8125 -4.234375 C 30.289062 -4.128906 29.75 -4.238281 29.1875 -4.5625 C 28.707031 -4.84375 28.390625 -5.128906 28.234375 -5.421875 C 28.085938 -5.722656 28.007812 -6.066406 28 -6.453125 C 27.988281 -6.835938 28.015625 -7.25 28.078125 -7.6875 C 28.140625 -8.125 28.113281 -8.625 28 -9.1875 C 27.820312 -10.238281 27.398438 -11.132812 26.734375 -11.875 C 26.066406 -12.613281 25.296875 -13.238281 24.421875 -13.75 C 23.535156 -14.269531 22.628906 -14.617188 21.703125 -14.796875 C 20.785156 -14.984375 19.84375 -14.898438 18.875 -14.546875 C 17.914062 -14.203125 16.929688 -13.554688 15.921875 -12.609375 C 14.921875 -11.660156 13.914062 -10.328125 12.90625 -8.609375 C 11.894531 -6.878906 11.222656 -5.347656 10.890625 -4.015625 C 10.554688 -2.691406 10.484375 -1.535156 10.671875 -0.546875 C 10.859375 0.441406 11.253906 1.289062 11.859375 2 C 12.472656 2.71875 13.222656 3.335938 14.109375 3.859375 C 14.890625 4.316406 15.691406 4.648438 16.515625 4.859375 C 17.335938 5.066406 18.191406 5.070312 19.078125 4.875 C 19.742188 4.738281 20.316406 4.503906 20.796875 4.171875 C 21.285156 3.847656 21.738281 3.554688 22.15625 3.296875 C 22.582031 3.046875 23.007812 2.878906 23.4375 2.796875 C 23.875 2.722656 24.375 2.847656 24.9375 3.171875 C 25.488281 3.492188 25.835938 3.910156 25.984375 4.421875 C 26.128906 4.929688 26.023438 5.488281 25.671875 6.09375 C 25.453125 6.457031 25.160156 6.800781 24.796875 7.125 C 24.429688 7.445312 24.019531 7.742188 23.5625 8.015625 C 23.101562 8.296875 22.609375 8.539062 22.078125 8.75 C 21.554688 8.957031 21.035156 9.113281 20.515625 9.21875 C 19.265625 9.488281 18.035156 9.519531 16.828125 9.3125 C 15.628906 9.101562 14.441406 8.707031 13.265625 8.125 L 12.40625 9.109375 C 13.332031 9.804688 13.851562 10.515625 13.96875 11.234375 C 14.082031 11.953125 13.953125 12.632812 13.578125 13.28125 C 13.234375 13.875 12.832031 14.316406 12.375 14.609375 C 11.925781 14.910156 11.453125 15.082031 10.953125 15.125 C 10.453125 15.164062 9.921875 15.109375 9.359375 14.953125 C 8.796875 14.804688 8.25 14.578125 7.71875 14.265625 C 6.875 13.765625 6.234375 13.207031 5.796875 12.59375 C 5.367188 11.988281 5.332031 11.382812 5.6875 10.78125 C 5.875 10.457031 6.113281 10.226562 6.40625 10.09375 C 6.707031 9.957031 7.019531 9.988281 7.34375 10.1875 C 7.644531 10.351562 7.914062 10.570312 8.15625 10.84375 C 8.394531 11.125 8.78125 11.414062 9.3125 11.71875 C 9.613281 11.90625 9.863281 12.007812 10.0625 12.03125 C 10.269531 12.050781 10.441406 11.945312 10.578125 11.71875 C 10.710938 11.488281 10.675781 11.269531 10.46875 11.0625 C 10.257812 10.863281 9.972656 10.613281 9.609375 10.3125 Z M 9.609375 10.3125 "/></g></g></g><g fill="#ffffff" fill-opacity="1"><g transform="translate(540.479681, 505.151245)"><g><path d="M 22.3125 13.03125 C 22.1875 13.46875 22.019531 13.828125 21.8125 14.109375 C 21.445312 14.597656 21 14.875 20.46875 14.9375 C 19.945312 15 19.398438 14.816406 18.828125 14.390625 C 18.304688 14.003906 17.953125 13.53125 17.765625 12.96875 C 17.585938 12.40625 17.625 11.703125 17.875 10.859375 L 19.234375 6.203125 L 10.234375 -0.453125 L 6.1875 2.234375 C 5.46875 2.722656 4.8125 2.96875 4.21875 2.96875 C 3.625 2.96875 3.070312 2.773438 2.5625 2.390625 C 1.988281 1.960938 1.648438 1.488281 1.546875 0.96875 C 1.453125 0.445312 1.585938 -0.0546875 1.953125 -0.546875 C 2.160156 -0.828125 2.453125 -1.09375 2.828125 -1.34375 L 22.921875 -14.609375 C 23.898438 -15.273438 24.757812 -15.613281 25.5 -15.625 C 26.25 -15.644531 27.019531 -15.363281 27.8125 -14.78125 C 28.601562 -14.195312 29.097656 -13.546875 29.296875 -12.828125 C 29.503906 -12.117188 29.4375 -11.191406 29.09375 -10.046875 Z M 13.96875 -2.90625 L 20.5 1.90625 L 23.78125 -9.40625 Z M 28.75 -19.0625 C 28.507812 -19.238281 28.300781 -19.320312 28.125 -19.3125 C 27.957031 -19.300781 27.753906 -19.253906 27.515625 -19.171875 C 27.285156 -19.078125 27.054688 -19.019531 26.828125 -19 C 26.597656 -18.976562 26.300781 -19.101562 25.9375 -19.375 C 25.507812 -19.695312 25.269531 -20.035156 25.21875 -20.390625 C 25.175781 -20.753906 25.296875 -21.125 25.578125 -21.5 C 25.828125 -21.84375 26.148438 -22.132812 26.546875 -22.375 C 26.941406 -22.613281 27.359375 -22.773438 27.796875 -22.859375 C 28.242188 -22.941406 28.679688 -22.945312 29.109375 -22.875 C 29.546875 -22.800781 29.953125 -22.628906 30.328125 -22.359375 C 30.640625 -22.128906 30.921875 -21.828125 31.171875 -21.453125 C 31.429688 -21.085938 31.65625 -20.726562 31.84375 -20.375 C 32.039062 -20.019531 32.222656 -19.679688 32.390625 -19.359375 C 32.566406 -19.046875 32.738281 -18.828125 32.90625 -18.703125 C 33.144531 -18.523438 33.347656 -18.441406 33.515625 -18.453125 C 33.679688 -18.460938 33.882812 -18.507812 34.125 -18.59375 C 34.363281 -18.695312 34.59375 -18.753906 34.8125 -18.765625 C 35.039062 -18.785156 35.335938 -18.660156 35.703125 -18.390625 C 36.128906 -18.078125 36.363281 -17.738281 36.40625 -17.375 C 36.457031 -17.007812 36.347656 -16.640625 36.078125 -16.265625 C 35.816406 -15.921875 35.488281 -15.628906 35.09375 -15.390625 C 34.707031 -15.148438 34.289062 -14.988281 33.84375 -14.90625 C 33.40625 -14.820312 32.960938 -14.816406 32.515625 -14.890625 C 32.078125 -14.972656 31.675781 -15.144531 31.3125 -15.40625 C 30.988281 -15.644531 30.710938 -15.941406 30.484375 -16.296875 C 30.253906 -16.648438 30.03125 -17.007812 29.8125 -17.375 C 29.59375 -17.75 29.398438 -18.09375 29.234375 -18.40625 C 29.078125 -18.71875 28.914062 -18.9375 28.75 -19.0625 Z M 28.75 -19.0625 "/></g></g></g><g fill="#ffffff" fill-opacity="1"><g transform="translate(561.55684, 520.60439)"><g><path d="M 10.109375 9.859375 C 8.773438 8.628906 7.757812 7.289062 7.0625 5.84375 C 6.363281 4.40625 6.023438 2.890625 6.046875 1.296875 C 6.078125 -0.285156 6.488281 -1.941406 7.28125 -3.671875 C 8.082031 -5.398438 9.304688 -7.15625 10.953125 -8.9375 C 12.609375 -10.75 14.257812 -12.117188 15.90625 -13.046875 C 17.5625 -13.972656 19.175781 -14.515625 20.75 -14.671875 C 22.332031 -14.835938 23.875 -14.628906 25.375 -14.046875 C 26.875 -13.472656 28.289062 -12.570312 29.625 -11.34375 C 30.957031 -10.113281 31.972656 -8.773438 32.671875 -7.328125 C 33.367188 -5.890625 33.707031 -4.375 33.6875 -2.78125 C 33.675781 -1.1875 33.269531 0.460938 32.46875 2.171875 C 31.675781 3.890625 30.453125 5.65625 28.796875 7.46875 C 27.148438 9.25 25.5 10.609375 23.84375 11.546875 C 22.195312 12.492188 20.578125 13.046875 18.984375 13.203125 C 17.398438 13.359375 15.859375 13.144531 14.359375 12.5625 C 12.859375 11.988281 11.441406 11.085938 10.109375 9.859375 Z M 12.96875 6.765625 C 14.59375 8.265625 16.460938 8.84375 18.578125 8.5 C 20.703125 8.164062 22.929688 6.738281 25.265625 4.21875 C 27.585938 1.6875 28.828125 -0.644531 28.984375 -2.78125 C 29.140625 -4.925781 28.40625 -6.75 26.78125 -8.25 C 25.15625 -9.75 23.28125 -10.328125 21.15625 -9.984375 C 19.03125 -9.648438 16.804688 -8.21875 14.484375 -5.6875 C 12.148438 -3.164062 10.90625 -0.835938 10.75 1.296875 C 10.601562 3.441406 11.34375 5.265625 12.96875 6.765625 Z M 12.96875 6.765625 "/></g></g></g><g fill="#2b468f" fill-opacity="1"><g transform="translate(155.835469, 895.780557)"><g><path d="M 33.796875 30.015625 C 33.421875 30.734375 33.015625 31.296875 32.578125 31.703125 C 31.773438 32.421875 30.910156 32.738281 29.984375 32.65625 C 29.066406 32.582031 28.1875 32.078125 27.34375 31.140625 C 26.59375 30.316406 26.15625 29.390625 26.03125 28.359375 C 25.914062 27.328125 26.222656 26.132812 26.953125 24.78125 L 30.890625 17.25 L 17.71875 2.734375 L 9.875 5.96875 C 8.457031 6.570312 7.238281 6.765625 6.21875 6.546875 C 5.207031 6.328125 4.328125 5.804688 3.578125 4.984375 C 2.734375 4.046875 2.3125 3.113281 2.3125 2.1875 C 2.320312 1.269531 2.726562 0.453125 3.53125 -0.265625 C 3.96875 -0.671875 4.566406 -1.023438 5.328125 -1.328125 L 44.328125 -17.1875 C 46.242188 -17.988281 47.84375 -18.273438 49.125 -18.046875 C 50.40625 -17.828125 51.628906 -17.082031 52.796875 -15.8125 C 53.960938 -14.53125 54.59375 -13.238281 54.6875 -11.9375 C 54.78125 -10.644531 54.335938 -9.078125 53.359375 -7.234375 Z M 24.984375 -0.1875 L 34.53125 10.34375 L 44.03125 -7.9375 Z M 51.5625 -20.28125 C 51.3125 -20.550781 51.203125 -20.859375 51.234375 -21.203125 C 51.265625 -21.546875 51.421875 -21.84375 51.703125 -22.09375 C 52.160156 -22.507812 53 -22.875 54.21875 -23.1875 C 55.4375 -23.507812 56.726562 -23.816406 58.09375 -24.109375 C 58.925781 -24.304688 59.757812 -24.46875 60.59375 -24.59375 C 61.425781 -24.71875 62.210938 -24.785156 62.953125 -24.796875 C 63.703125 -24.816406 64.375 -24.734375 64.96875 -24.546875 C 65.570312 -24.367188 66.0625 -24.070312 66.4375 -23.65625 C 67.164062 -22.863281 67.523438 -21.898438 67.515625 -20.765625 C 67.515625 -19.628906 67.164062 -18.75 66.46875 -18.125 C 65.707031 -17.425781 64.628906 -17.132812 63.234375 -17.25 C 61.847656 -17.375 60.332031 -17.609375 58.6875 -17.953125 C 57.144531 -18.253906 55.679688 -18.59375 54.296875 -18.96875 C 52.910156 -19.351562 52 -19.789062 51.5625 -20.28125 Z M 51.5625 -20.28125 "/></g></g></g><g fill="#2b468f" fill-opacity="1"><g transform="translate(189.865775, 932.964205)"><g><path d="M 45.96875 -17.515625 C 44.582031 -18.617188 43.085938 -19.460938 41.484375 -20.046875 C 39.890625 -20.640625 38.203125 -20.765625 36.421875 -20.421875 C 34.640625 -20.085938 32.753906 -19.238281 30.765625 -17.875 C 28.785156 -16.507812 26.707031 -14.457031 24.53125 -11.71875 C 22.351562 -8.976562 20.816406 -6.484375 19.921875 -4.234375 C 19.023438 -1.984375 18.625 0.0234375 18.71875 1.796875 C 18.820312 3.578125 19.335938 5.179688 20.265625 6.609375 C 21.203125 8.035156 22.363281 9.300781 23.75 10.40625 C 24.988281 11.382812 26.25 12.148438 27.53125 12.703125 C 28.820312 13.253906 30.164062 13.457031 31.5625 13.3125 C 32.96875 13.175781 34.429688 12.65625 35.953125 11.75 C 37.484375 10.84375 39.082031 9.453125 40.75 7.578125 L 33.140625 1.515625 C 32.078125 0.671875 31.507812 -0.207031 31.4375 -1.125 C 31.363281 -2.050781 31.660156 -2.929688 32.328125 -3.765625 C 32.992188 -4.609375 33.789062 -5.109375 34.71875 -5.265625 C 35.65625 -5.429688 36.65625 -5.09375 37.71875 -4.25 L 46.859375 3.03125 C 48.722656 4.507812 49.703125 5.972656 49.796875 7.421875 C 49.898438 8.867188 49.210938 10.53125 47.734375 12.40625 C 45.609375 15.070312 43.367188 17.109375 41.015625 18.515625 C 38.671875 19.929688 36.269531 20.78125 33.8125 21.0625 C 31.363281 21.34375 28.894531 21.054688 26.40625 20.203125 C 23.925781 19.359375 21.515625 18.007812 19.171875 16.15625 C 16.867188 14.320312 14.953125 12.269531 13.421875 10 C 11.890625 7.738281 10.957031 5.238281 10.625 2.5 C 10.289062 -0.238281 10.675781 -3.222656 11.78125 -6.453125 C 12.894531 -9.679688 14.953125 -13.179688 17.953125 -16.953125 C 20.941406 -20.710938 23.882812 -23.492188 26.78125 -25.296875 C 29.6875 -27.097656 32.515625 -28.15625 35.265625 -28.46875 C 38.023438 -28.78125 40.6875 -28.453125 43.25 -27.484375 C 45.820312 -26.515625 48.257812 -25.113281 50.5625 -23.28125 C 53.226562 -21.164062 55.3125 -18.804688 56.8125 -16.203125 C 58.3125 -13.597656 58.976562 -10.609375 58.8125 -7.234375 C 58.75 -6.273438 58.582031 -5.210938 58.3125 -4.046875 C 58.050781 -2.890625 57.585938 -1.890625 56.921875 -1.046875 C 56.222656 -0.171875 55.40625 0.296875 54.46875 0.359375 C 53.53125 0.421875 52.625 0.0976562 51.75 -0.609375 C 50.976562 -1.210938 50.5 -1.796875 50.3125 -2.359375 C 50.132812 -2.921875 50.082031 -3.523438 50.15625 -4.171875 C 50.226562 -4.828125 50.367188 -5.535156 50.578125 -6.296875 C 50.796875 -7.054688 50.882812 -7.929688 50.84375 -8.921875 C 50.789062 -10.816406 50.3125 -12.445312 49.40625 -13.8125 C 48.5 -15.175781 47.351562 -16.410156 45.96875 -17.515625 Z M 45.96875 -17.515625 "/></g></g></g><g fill="#2b468f" fill-opacity="1"><g transform="translate(230.294007, 964.7905)"><g><path d="M 46.578125 4.921875 C 44.773438 8.140625 42.789062 10.554688 40.625 12.171875 C 38.46875 13.796875 36.234375 14.800781 33.921875 15.1875 C 31.617188 15.582031 29.3125 15.476562 27 14.875 C 24.6875 14.28125 22.492188 13.398438 20.421875 12.234375 C 18.296875 11.054688 16.375 9.632812 14.65625 7.96875 C 12.945312 6.3125 11.664062 4.398438 10.8125 2.234375 C 9.96875 0.078125 9.671875 -2.34375 9.921875 -5.03125 C 10.171875 -7.726562 11.195312 -10.6875 13 -13.90625 L 26.1875 -37.421875 C 26.882812 -38.671875 27.75 -39.40625 28.78125 -39.625 C 29.820312 -39.851562 30.875 -39.671875 31.9375 -39.078125 C 32.988281 -38.492188 33.6875 -37.695312 34.03125 -36.6875 C 34.382812 -35.6875 34.210938 -34.5625 33.515625 -33.3125 L 20.328125 -9.796875 C 19.160156 -7.710938 18.476562 -5.847656 18.28125 -4.203125 C 18.082031 -2.554688 18.207031 -1.113281 18.65625 0.125 C 19.101562 1.375 19.8125 2.46875 20.78125 3.40625 C 21.75 4.351562 22.828125 5.15625 24.015625 5.8125 C 25.191406 6.476562 26.4375 6.976562 27.75 7.3125 C 29.0625 7.65625 30.363281 7.691406 31.65625 7.421875 C 32.957031 7.160156 34.257812 6.515625 35.5625 5.484375 C 36.863281 4.453125 38.097656 2.894531 39.265625 0.8125 L 52.453125 -22.703125 C 53.148438 -23.953125 54.015625 -24.6875 55.046875 -24.90625 C 56.078125 -25.132812 57.125 -24.957031 58.1875 -24.375 C 59.25 -23.78125 59.953125 -22.976562 60.296875 -21.96875 C 60.640625 -20.96875 60.460938 -19.84375 59.765625 -18.59375 Z M 46.578125 4.921875 "/></g></g></g><g fill="#2b468f" fill-opacity="1"><g transform="translate(274.409735, 989.247452)"><g><path d="M 43.859375 10.921875 C 43.867188 11.710938 43.769531 12.394531 43.5625 12.96875 C 43.1875 13.976562 42.570312 14.660156 41.71875 15.015625 C 40.875 15.378906 39.859375 15.34375 38.671875 14.90625 C 37.628906 14.519531 36.816406 13.894531 36.234375 13.03125 C 35.648438 12.175781 35.367188 10.984375 35.390625 9.453125 L 35.359375 0.953125 L 16.96875 -5.78125 L 11.53125 0.71875 C 10.550781 1.894531 9.5625 2.625 8.5625 2.90625 C 7.5625 3.1875 6.535156 3.132812 5.484375 2.75 C 4.304688 2.320312 3.503906 1.695312 3.078125 0.875 C 2.660156 0.0507812 2.640625 -0.863281 3.015625 -1.875 C 3.222656 -2.445312 3.582031 -3.035156 4.09375 -3.640625 L 31.296875 -35.796875 C 32.617188 -37.390625 33.898438 -38.382812 35.140625 -38.78125 C 36.378906 -39.175781 37.8125 -39.078125 39.4375 -38.484375 C 41.0625 -37.890625 42.21875 -37.039062 42.90625 -35.9375 C 43.59375 -34.832031 43.929688 -33.242188 43.921875 -31.171875 Z M 22.046875 -11.75 L 35.390625 -6.859375 L 35.328125 -27.46875 Z M 22.046875 -11.75 "/></g></g></g><g fill="#2b468f" fill-opacity="1"><g transform="translate(321.209432, 1005.466597)"><g/></g></g><g fill="#2b468f" fill-opacity="1"><g transform="translate(344.413763, 1012.050085)"><g><path d="M 45.828125 -24.671875 L 33.171875 0.484375 C 32.515625 1.722656 31.832031 2.585938 31.125 3.078125 C 30.425781 3.578125 29.445312 3.757812 28.1875 3.625 C 26.9375 3.5 26.015625 3.117188 25.421875 2.484375 C 24.828125 1.859375 24.34375 0.875 23.96875 -0.46875 L 16.65625 -27.703125 L 12.765625 -2.40625 C 12.523438 -0.976562 11.984375 0.0664062 11.140625 0.734375 C 10.304688 1.398438 9.234375 1.664062 7.921875 1.53125 C 6.578125 1.394531 5.597656 0.914062 4.984375 0.09375 C 4.367188 -0.71875 4.179688 -1.835938 4.421875 -3.265625 L 10.640625 -42.9375 C 10.941406 -44.9375 11.578125 -46.363281 12.546875 -47.21875 C 13.523438 -48.082031 14.734375 -48.441406 16.171875 -48.296875 C 18.679688 -48.035156 20.285156 -46.523438 20.984375 -43.765625 L 29.71875 -11.140625 L 44.9375 -41.28125 C 46.195312 -43.84375 48.070312 -44.992188 50.5625 -44.734375 C 52.007812 -44.585938 53.128906 -43.988281 53.921875 -42.9375 C 54.710938 -41.894531 55.050781 -40.367188 54.9375 -38.359375 L 52.875 1.75 C 52.820312 3.195312 52.40625 4.253906 51.625 4.921875 C 50.851562 5.597656 49.796875 5.867188 48.453125 5.734375 C 47.148438 5.597656 46.15625 5.113281 45.46875 4.28125 C 44.78125 3.457031 44.460938 2.320312 44.515625 0.875 Z M 45.828125 -24.671875 "/></g></g></g><g fill="#2b468f" fill-opacity="1"><g transform="translate(404.166532, 1017.616992)"><g><path d="M 24.6875 -1.15625 C 21.519531 -0.914062 18.597656 -1.207031 15.921875 -2.03125 C 13.242188 -2.863281 10.90625 -4.242188 8.90625 -6.171875 C 6.914062 -8.109375 5.285156 -10.617188 4.015625 -13.703125 C 2.753906 -16.796875 1.960938 -20.460938 1.640625 -24.703125 C 1.316406 -28.972656 1.550781 -32.71875 2.34375 -35.9375 C 3.132812 -39.164062 4.367188 -41.882812 6.046875 -44.09375 C 7.734375 -46.300781 9.835938 -48.015625 12.359375 -49.234375 C 14.890625 -50.453125 17.738281 -51.179688 20.90625 -51.421875 C 24.070312 -51.660156 26.992188 -51.363281 29.671875 -50.53125 C 32.359375 -49.707031 34.707031 -48.328125 36.71875 -46.390625 C 38.738281 -44.460938 40.367188 -41.960938 41.609375 -38.890625 C 42.847656 -35.828125 43.628906 -32.160156 43.953125 -27.890625 C 44.273438 -23.648438 44.050781 -19.90625 43.28125 -16.65625 C 42.519531 -13.414062 41.285156 -10.691406 39.578125 -8.484375 C 37.878906 -6.273438 35.765625 -4.5625 33.234375 -3.34375 C 30.703125 -2.125 27.851562 -1.394531 24.6875 -1.15625 Z M 24.140625 -8.5 C 27.992188 -8.789062 30.972656 -10.484375 33.078125 -13.578125 C 35.191406 -16.679688 36.019531 -21.238281 35.5625 -27.25 C 35.113281 -33.25 33.613281 -37.625 31.0625 -40.375 C 28.507812 -43.132812 25.304688 -44.367188 21.453125 -44.078125 C 17.597656 -43.785156 14.617188 -42.085938 12.515625 -38.984375 C 10.410156 -35.878906 9.582031 -31.328125 10.03125 -25.328125 C 10.488281 -19.316406 11.988281 -14.9375 14.53125 -12.1875 C 17.082031 -9.4375 20.285156 -8.207031 24.140625 -8.5 Z M 24.140625 -8.5 "/></g></g></g><g fill="#2b468f" fill-opacity="1"><g transform="translate(455.907493, 1013.068626)"><g><path d="M -5.453125 -45.328125 C -5.765625 -46.734375 -5.609375 -47.867188 -4.984375 -48.734375 C -4.359375 -49.597656 -3.453125 -50.160156 -2.265625 -50.421875 C -1.085938 -50.679688 -0.0351562 -50.550781 0.890625 -50.03125 C 1.816406 -49.519531 2.4375 -48.5625 2.75 -47.15625 L 11.046875 -9.984375 L 27.78125 -13.71875 C 29.101562 -14.007812 30.144531 -13.882812 30.90625 -13.34375 C 31.675781 -12.800781 32.175781 -12.003906 32.40625 -10.953125 C 32.644531 -9.910156 32.53125 -8.988281 32.0625 -8.1875 C 31.59375 -7.382812 30.695312 -6.835938 29.375 -6.546875 L 10.453125 -2.328125 C 8.265625 -1.835938 6.613281 -1.9375 5.5 -2.625 C 4.394531 -3.3125 3.578125 -4.835938 3.046875 -7.203125 Z M -5.453125 -45.328125 "/></g></g></g><g fill="#2b468f" fill-opacity="1"><g transform="translate(493.983078, 1004.776597)"><g><path d="M 38.390625 -18.21875 C 38.890625 -16.875 38.894531 -15.734375 38.40625 -14.796875 C 37.914062 -13.859375 37.101562 -13.175781 35.96875 -12.75 C 34.832031 -12.320312 33.765625 -12.296875 32.765625 -12.671875 C 31.773438 -13.054688 31.03125 -13.921875 30.53125 -15.265625 L 24.703125 -30.8125 L 5.046875 -23.421875 L 10.875 -7.875 C 11.375 -6.53125 11.375 -5.390625 10.875 -4.453125 C 10.382812 -3.523438 9.570312 -2.847656 8.4375 -2.421875 C 7.3125 -1.992188 6.25 -1.96875 5.25 -2.34375 C 4.25 -2.71875 3.5 -3.578125 3 -4.921875 L -11.71875 -44.125 C -12.226562 -45.476562 -12.226562 -46.625 -11.71875 -47.5625 C -11.21875 -48.5 -10.40625 -49.179688 -9.28125 -49.609375 C -8.144531 -50.035156 -7.082031 -50.054688 -6.09375 -49.671875 C -5.101562 -49.296875 -4.351562 -48.429688 -3.84375 -47.078125 L 2.453125 -30.3125 L 22.109375 -37.703125 L 15.8125 -54.46875 C 15.300781 -55.820312 15.296875 -56.960938 15.796875 -57.890625 C 16.296875 -58.828125 17.113281 -59.507812 18.25 -59.9375 C 19.382812 -60.363281 20.441406 -60.390625 21.421875 -60.015625 C 22.410156 -59.640625 23.160156 -58.773438 23.671875 -57.421875 Z M 38.390625 -18.21875 "/></g></g></g><g fill="#2b468f" fill-opacity="1"><g transform="translate(540.460547, 987.111777)"><g><path d="M 36.65625 -26.4375 C 37.28125 -25.925781 37.738281 -25.410156 38.03125 -24.890625 C 38.5625 -23.953125 38.6875 -23.039062 38.40625 -22.15625 C 38.132812 -21.269531 37.445312 -20.515625 36.34375 -19.890625 C 35.375 -19.335938 34.375 -19.117188 33.34375 -19.234375 C 32.3125 -19.347656 31.21875 -19.90625 30.0625 -20.90625 L 23.5625 -26.390625 L 6.53125 -16.6875 L 7.984375 -8.328125 C 8.253906 -6.828125 8.171875 -5.601562 7.734375 -4.65625 C 7.304688 -3.707031 6.609375 -2.957031 5.640625 -2.40625 C 4.546875 -1.78125 3.546875 -1.570312 2.640625 -1.78125 C 1.742188 -2 1.03125 -2.578125 0.5 -3.515625 C 0.207031 -4.035156 -0.00390625 -4.691406 -0.140625 -5.484375 L -7.109375 -47.015625 C -7.472656 -49.054688 -7.40625 -50.675781 -6.90625 -51.875 C -6.414062 -53.082031 -5.421875 -54.113281 -3.921875 -54.96875 C -2.410156 -55.820312 -1.015625 -56.15625 0.265625 -55.96875 C 1.554688 -55.78125 2.988281 -55.007812 4.5625 -53.65625 Z M 5.25 -24.4375 L 17.609375 -31.46875 L 1.84375 -44.71875 Z M 5.25 -24.4375 "/></g></g></g><g fill="#2b468f" fill-opacity="1"><g transform="translate(584.071549, 961.978381)"><g><path d="M 8.359375 -6.6875 C 6.609375 -5.289062 5.082031 -4.65625 3.78125 -4.78125 C 2.488281 -4.914062 1.082031 -5.925781 -0.4375 -7.8125 L -23.109375 -36.109375 C -24.628906 -38.003906 -25.304688 -39.597656 -25.140625 -40.890625 C -24.984375 -42.179688 -24.03125 -43.523438 -22.28125 -44.921875 L -16.328125 -49.703125 C -12.242188 -52.972656 -8.597656 -55.175781 -5.390625 -56.3125 C -2.179688 -57.457031 0.789062 -57.753906 3.53125 -57.203125 C 6.28125 -56.648438 8.863281 -55.351562 11.28125 -53.3125 C 13.695312 -51.269531 16.128906 -48.71875 18.578125 -45.65625 C 20.765625 -42.925781 22.507812 -40.203125 23.8125 -37.484375 C 25.125 -34.765625 25.757812 -32.023438 25.71875 -29.265625 C 25.6875 -26.515625 24.84375 -23.710938 23.1875 -20.859375 C 21.53125 -18.015625 18.804688 -15.070312 15.015625 -12.03125 Z M -15.9375 -40.59375 L 5.515625 -13.828125 L 10.53125 -17.859375 C 13.082031 -19.898438 14.878906 -21.847656 15.921875 -23.703125 C 16.972656 -25.566406 17.476562 -27.40625 17.4375 -29.21875 C 17.394531 -31.03125 16.875 -32.859375 15.875 -34.703125 C 14.882812 -36.546875 13.601562 -38.445312 12.03125 -40.40625 C 10.226562 -42.664062 8.503906 -44.554688 6.859375 -46.078125 C 5.210938 -47.609375 3.484375 -48.585938 1.671875 -49.015625 C -0.140625 -49.441406 -2.117188 -49.273438 -4.265625 -48.515625 C -6.410156 -47.753906 -8.898438 -46.238281 -11.734375 -43.96875 Z M -15.9375 -40.59375 "/></g></g></g><g fill="#2b468f" fill-opacity="1"><g transform="translate(622.47497, 930.965634)"><g><path d="M 26.640625 -36.515625 C 27.390625 -36.210938 27.984375 -35.859375 28.421875 -35.453125 C 29.222656 -34.734375 29.625 -33.910156 29.625 -32.984375 C 29.632812 -32.066406 29.21875 -31.140625 28.375 -30.203125 C 27.625 -29.378906 26.738281 -28.859375 25.71875 -28.640625 C 24.707031 -28.421875 23.492188 -28.613281 22.078125 -29.21875 L 14.203125 -32.40625 L 1.03125 -17.890625 L 5 -10.40625 C 5.726562 -9.050781 6.03125 -7.859375 5.90625 -6.828125 C 5.789062 -5.796875 5.359375 -4.867188 4.609375 -4.046875 C 3.765625 -3.109375 2.878906 -2.597656 1.953125 -2.515625 C 1.035156 -2.441406 0.175781 -2.765625 -0.625 -3.484375 C -1.0625 -3.890625 -1.460938 -4.453125 -1.828125 -5.171875 L -21.359375 -42.46875 C -22.335938 -44.3125 -22.78125 -45.878906 -22.6875 -47.171875 C -22.59375 -48.472656 -21.960938 -49.757812 -20.796875 -51.03125 C -19.628906 -52.3125 -18.40625 -53.0625 -17.125 -53.28125 C -15.84375 -53.507812 -14.242188 -53.222656 -12.328125 -52.421875 Z M -2.578125 -24.84375 L 6.96875 -35.375 L -12.125 -43.0625 Z M -2.578125 -24.84375 "/></g></g></g></svg>